<svg width="54" height="54" viewBox="0 0 54 54" fill="none" xmlns="http://www.w3.org/2000/svg">
<path fill-rule="evenodd" clip-rule="evenodd" d="M7 27.1117C7 37.055 14.2217 45.3233 23.6667 47V32.555H18.6667V27H23.6667V22.555C23.6667 17.555 26.8883 14.7783 31.445 14.7783C32.8883 14.7783 34.445 15 35.8883 15.2217V20.3333H33.3333C30.8883 20.3333 30.3333 21.555 30.3333 23.1117V27H35.6667L34.7783 32.555H30.3333V47C39.7783 45.3233 47 37.0567 47 27.1117C47 16.05 38 7 27 7C16 7 7 16.05 7 27.1117Z" fill="#253F81"/>
<circle cx="27" cy="27" r="26.5" stroke="#689AF9"/>
</svg>
