<svg width="54" height="54" viewBox="0 0 54 54" fill="none" xmlns="http://www.w3.org/2000/svg">
<path d="M44.86 23.4327H43.3928V23.3571H26.9999V30.6428H37.2937C35.792 34.884 31.7566 37.9285 26.9999 37.9285C20.9646 37.9285 16.0714 33.0352 16.0714 26.9999C16.0714 20.9646 20.9646 16.0714 26.9999 16.0714C29.7858 16.0714 32.3203 17.1223 34.2501 18.839L39.402 13.6871C36.149 10.6553 31.7976 8.78564 26.9999 8.78564C16.9411 8.78564 8.78564 16.9411 8.78564 26.9999C8.78564 37.0588 16.9411 45.2142 26.9999 45.2142C37.0588 45.2142 45.2142 37.0588 45.2142 26.9999C45.2142 25.7787 45.0885 24.5865 44.86 23.4327Z" fill="#FFC107"/>
<path d="M10.8857 18.5221L16.87 22.9108C18.4893 18.9019 22.4108 16.0714 26.9999 16.0714C29.7858 16.0714 32.3203 17.1223 34.2501 18.839L39.402 13.6871C36.149 10.6553 31.7976 8.78564 26.9999 8.78564C20.0038 8.78564 13.9366 12.7354 10.8857 18.5221Z" fill="#FF3D00"/>
<path d="M26.9999 45.2141C31.7047 45.2141 35.9796 43.4137 39.2117 40.4857L33.5744 35.7154C31.6842 37.1529 29.3746 37.9303 26.9999 37.9284C22.2624 37.9284 18.2398 34.9076 16.7243 30.6919L10.7847 35.2682C13.7991 41.1669 19.921 45.2141 26.9999 45.2141Z" fill="#4CAF50"/>
<path d="M44.86 23.4328H43.3929V23.3572H27V30.6429H37.2938C36.5754 32.6614 35.2814 34.4253 33.5717 35.7165L33.5744 35.7147L39.2118 40.485C38.8129 40.8474 45.2143 36.1072 45.2143 27C45.2143 25.7788 45.0886 24.5866 44.86 23.4328Z" fill="#1976D2"/>
<circle cx="27" cy="27" r="26.5" stroke="#689AF9"/>
</svg>
