<svg width="28" height="27" viewBox="0 0 28 27" fill="none" xmlns="http://www.w3.org/2000/svg">
<path d="M9 16L10.41 17.41L13 14.83V27H15V14.83L17.59 17.41L19 16L14 11L9 16Z" fill="#B3BBC7"/>
<path d="M21.5221 21H21.0206V18.8972H21.5221C22.7191 18.9474 23.8861 18.497 24.7664 17.6452C25.6466 16.7934 26.168 15.6099 26.2159 14.3551C26.2638 13.1003 25.8342 11.8769 25.0217 10.9541C24.2091 10.0313 23.0802 9.4847 21.8832 9.4345H21.0206L20.9203 8.57235C20.6978 6.80225 19.8691 5.17729 18.5886 4.00017C17.308 2.82306 15.663 2.17405 13.9599 2.17405C12.2568 2.17405 10.6117 2.82306 9.33118 4.00017C8.05064 5.17729 7.22193 6.80225 6.99942 8.57235L6.97936 9.4345H6.11683C4.91983 9.4847 3.79088 10.0313 2.97834 10.9541C2.16579 11.8769 1.73621 13.1003 1.78409 14.3551C1.83197 15.6099 2.35339 16.7934 3.23365 17.6452C4.11391 18.497 5.28089 18.9474 6.47789 18.8972H6.97936V21H6.47789C4.86956 20.9893 3.32177 20.3558 2.1321 19.2211C0.942418 18.0865 0.194833 16.5308 0.0330707 14.8533C-0.128691 13.1758 0.306789 11.4948 1.25579 10.1335C2.20478 8.77225 3.60031 7.82678 5.17405 7.47888C5.60703 5.36189 6.71943 3.46458 8.32563 2.10352C9.93183 0.742471 11.9347 0 14 0C16.0653 0 18.0682 0.742471 19.6744 2.10352C21.2806 3.46458 22.393 5.36189 22.8259 7.47888C24.3997 7.82678 25.7952 8.77225 26.7442 10.1335C27.6932 11.4948 28.1287 13.1758 27.9669 14.8533C27.8052 16.5308 27.0576 18.0865 25.8679 19.2211C24.6782 20.3558 23.1304 20.9893 21.5221 21Z" fill="#B3BBC7"/>
</svg>
