<svg width="23" height="23" viewBox="0 0 23 23" fill="none" xmlns="http://www.w3.org/2000/svg">
<path d="M7.1209 3.94239L9.85867 5.47554L8.32552 2.73777L9.85867 0L7.1209 1.53315L4.38312 0L5.91627 2.73777L4.38312 5.47554L7.1209 3.94239ZM20.2622 14.6744L17.5244 13.1413L19.0576 15.8791L17.5244 18.6168L20.2622 17.0837L23 18.6168L21.4668 15.8791L23 13.1413L20.2622 14.6744ZM23 0L20.2622 1.53315L17.5244 0L19.0576 2.73777L17.5244 5.47554L20.2622 3.94239L23 5.47554L21.4668 2.73777L23 0ZM14.6443 5.79312C14.543 5.6916 14.4227 5.61106 14.2902 5.5561C14.1577 5.50115 14.0157 5.47286 13.8723 5.47286C13.7288 5.47286 13.5868 5.50115 13.4543 5.5561C13.3219 5.61106 13.2015 5.6916 13.1002 5.79312L0.320259 18.573C0.218738 18.6743 0.138195 18.7947 0.083241 18.9272C0.0282868 19.0596 0 19.2017 0 19.3451C0 19.4885 0.0282868 19.6305 0.083241 19.763C0.138195 19.8955 0.218738 20.0158 0.320259 20.1171L2.88282 22.6797C3.30991 23.1068 3.99983 23.1068 4.42692 22.6797L17.1959 9.91073C17.2974 9.80941 17.378 9.68907 17.4329 9.55659C17.4879 9.42412 17.5162 9.2821 17.5162 9.13867C17.5162 8.99525 17.4879 8.85323 17.4329 8.72076C17.378 8.58828 17.2974 8.46794 17.1959 8.36662L14.6443 5.79312ZM13.5163 11.8053L11.1947 9.48363L13.8668 6.81157L16.1884 9.1332L13.5163 11.8053Z" fill="white"/>
</svg>
